Coordinates
version=1
nRows=49
nColumns=12
inDegrees=yes

Units are S.I. units (second, meters, Newtons, ...)
Angles are in degrees

endheader
time	SC_y	SC_z	SC_x	AC_y	AC_z	AC_x	GH_y	GH_z	GH_yy	EL_x	PS_y
       0.0              -57.45          23.69           43.9          42.87          3.724          14.78         -169.0           7.41        -0.4819          106.4          91.78
  0.009163              -57.45          23.69           43.9          42.87          3.722          14.77         -169.0          7.412        -0.4653          106.4          91.77
   0.01833              -57.44          23.69           43.9          42.87           3.72          14.77         -169.0          7.414        -0.4476          106.4          91.76
   0.02749              -57.44           23.7          43.89          42.87          3.719          14.77         -169.0          7.416        -0.4288          106.4          91.74
   0.03665              -57.43           23.7          43.89          42.87          3.717          14.76         -169.0          7.419        -0.4088          106.4          91.73
   0.04581              -57.43           23.7          43.89          42.87          3.714          14.76         -169.0          7.421        -0.3874          106.4          91.71
   0.05498              -57.42           23.7          43.88          42.88          3.712          14.76         -169.0          7.424        -0.3646          106.4          91.69
   0.06414              -57.41           23.7          43.88          42.88          3.709          14.75         -169.0          7.426        -0.3402          106.4          91.68
    0.0733               -57.4           23.7          43.87          42.88          3.707          14.75         -169.0          7.429        -0.3141          106.4          91.66
   0.08247               -57.4           23.7          43.87          42.88          3.704          14.74         -169.0          7.433        -0.2862          106.4          91.64
   0.09163              -57.39          23.71          43.86          42.88          3.701          14.73         -169.0          7.436        -0.2561          106.4          91.62
    0.1008              -57.38          23.71          43.86          42.88          3.698          14.73         -169.0           7.44        -0.2237          106.4          91.59
      0.11              -57.37          23.71          43.85          42.88          3.694          14.72         -169.0          7.444        -0.1889          106.4          91.57
    0.1191              -57.36          23.71          43.85          42.88           3.69          14.71         -169.0          7.448        -0.1512          106.4          91.54
    0.1283              -57.35          23.71          43.84          42.89          3.686          14.71         -169.0          7.453        -0.1104          106.4          91.51
    0.1374              -57.33          23.72          43.83          42.89          3.681           14.7         -169.0          7.458       -0.06619          106.4          91.48
    0.1466              -57.32          23.72          43.82          42.89          3.676          14.69         -169.0          7.463       -0.01813          106.4          91.44
    0.1558               -57.3          23.72          43.81          42.89          3.671          14.68         -169.0          7.469        0.03423          106.4           91.4
    0.1649              -57.29          23.73           43.8          42.89          3.665          14.67         -169.0          7.475         0.0914          106.4          91.36
    0.1741              -57.27          23.73          43.79           42.9          3.659          14.66         -169.0          7.483          0.154          106.4          91.32
    0.1833              -57.25          23.73          43.78           42.9          3.652          14.64         -169.0           7.49         0.2227          106.4          91.27
    0.1924              -57.23          23.74          43.77           42.9          3.644          14.63         -169.0          7.499         0.2984          106.3          91.21
    0.2016               -57.2          23.74          43.75          42.91          3.635          14.61         -169.0          7.509         0.3819          106.3          91.15
    0.2107              -57.18          23.75          43.74          42.91          3.626          14.59         -169.0          7.519         0.4745          106.3          91.08
    0.2199              -57.15          23.76          43.72          42.91          3.615          14.57         -169.0          7.531         0.5774          106.3          91.01
    0.2291              -57.11          23.76           43.7          42.92          3.603          14.55         -169.0          7.544         0.6922          106.3          90.92
    0.2382              -57.08          23.77          43.68          42.92           3.59          14.53         -169.0          7.558         0.8209          106.3          90.83
    0.2474              -57.04          23.78          43.65          42.93          3.575           14.5         -169.0          7.575         0.9656          106.3          90.72
    0.2566              -56.99          23.79          43.63          42.94          3.559          14.47         -169.0          7.593          1.129          106.3           90.6
    0.2657              -56.94           23.8          43.59          42.94           3.54          14.43         -169.0          7.615          1.315          106.2          90.47
    0.2749              -56.87          23.81          43.56          42.95          3.518          14.39         -169.0          7.639          1.527          106.2          90.31
     0.284               -56.8          23.83          43.52          42.96          3.493          14.35         -169.0          7.666           1.77          106.2          90.14
    0.2932              -56.72          23.84          43.47          42.97          3.464          14.29         -169.0          7.698          2.051          106.2          89.93
    0.3024              -56.63          23.86          43.41          42.99          3.431          14.23         -169.0          7.735          2.377          106.1          89.69
    0.3115              -56.52          23.88          43.35           43.0          3.391          14.16         -169.0          7.779          2.758          106.1          89.42
    0.3207              -56.39          23.91          43.27          43.02          3.345          14.07         -169.0           7.83          3.208          106.0          89.09
    0.3299              -56.24          23.94          43.18          43.04           3.29          13.97         -168.9          7.891          3.743          106.0           88.7
     0.339              -56.05          23.98          43.07          43.07          3.224          13.84         -168.9          7.964          4.384          105.9          88.23
    0.3482              -55.83          24.02          42.93           43.1          3.145          13.69         -168.9          8.052           5.16          105.9          87.66
    0.3573              -55.56          24.08          42.77          43.14          3.048          13.51         -168.9           8.16          6.107          105.8          86.97
    0.3665              -55.22          24.15          42.57          43.18          2.928          13.29         -168.9          8.292          7.276          105.6          86.12
    0.3757               -54.8          24.23          42.32          43.24          2.778          13.01         -168.8          8.458          8.734          105.5          85.05
    0.3848              -54.27          24.34           42.0          43.31          2.589          12.65         -168.8          8.667          10.57          105.3          83.71
     0.394               -53.6          24.48           41.6          43.41           2.35           12.2         -168.8          8.933          12.91          105.1          82.01
    0.4032              -52.74          24.65          41.09          43.53          2.043          11.63         -168.7          9.272          15.89          104.8          79.83
    0.4123              -51.64          24.88          40.43          43.68          1.649          10.89         -168.6          9.709          19.73          104.4          77.03
    0.4215              -50.23          25.17          39.59          43.88          1.146          9.952         -168.5          10.27          24.63          103.9          73.45
    0.4307              -48.45          25.53          38.53          44.12          0.514          8.768         -168.4          10.97          30.79          103.2          68.96
    0.4398              -46.29          25.97          37.24          44.43        -0.2566          7.325         -168.3          11.82          38.29          102.5          63.48
